<?xml version="1.0" encoding="utf-8"?>
<!-- Generator: Adobe Illustrator 17.0.0, SVG Export Plug-In . SVG Version: 6.00 Build 0)  -->
<!DOCTYPE svg PUBLIC "-//W3C//DTD SVG 1.1//EN" "http://www.w3.org/Graphics/SVG/1.1/DTD/svg11.dtd">
<svg version="1.1" xmlns="http://www.w3.org/2000/svg" xmlns:xlink="http://www.w3.org/1999/xlink" x="0px" y="0px" width="1024px"
	 height="1024px" viewBox="0 0 1024 1024" enable-background="new 0 0 1024 1024" xml:space="preserve">
<g id="section_219">
	<path fill="none" d="M68.234,437.791c-2.43,27.563-3.754,53.259-2.833,75.167h36.833v-5.334h26.667v5.334h16l1.166-60.244
		l-15.333-2.794l-0.709,5.87l-26-5l0.709-6.167L68.234,437.791z"/>
</g>
<g id="section_218">
	<path fill="none" d="M87.568,365.124c-8.807,25.746-15.043,48.288-18.5,67.12l36.833,7.547l1.075-5.867l25.642,5.201l-0.667,5.833
		l15.284,2.371l14.783-53.204l-14.783-6l-1.833,5.333l-24.928-9l1.762-6.167L87.568,365.124z"/>
</g>
<g id="section_217a">
	<path fill="none" d="M129.068,291.958c-17.051,23.406-30.387,46.125-39.167,68l34.333,13.333l2.667-5.114l24.5,10.114l-2.167,4.796
		l15,6.204l28.667-50.667l-12.801-9.562l-3.316,5.456l-21.567-15.987l3.35-5.241L129.068,291.958z"/>
</g>
<g id="section_217">
	<path fill="none" d="M242.642,290.124l-46.407,44.538l-12.833-9.126l3.742-5.145l-22.025-15.05l-3.05,4.201l-29.834-21.584
		c15.649-18.996,37.275-39.569,62.155-61l22.179,29.667l-4,3.334l16.311,20.851l3.856-2.976L242.642,290.124z"/>
</g>
<g id="section_216a">
	<path fill="none" d="M259.234,189.457c-21.842,10.057-41.991,21.68-60.667,34.667l22.333,28.807l4.5-3.041l16.816,21.308
		l-4.982,3.651l10,11.941l43.833-25l-6.167-14.333l-4.667,2.667l-11.333-24l5.333-2.833L259.234,189.457z"/>
</g>
<g id="section_216">
	<path fill="none" d="M331.401,163.458c-25.044,7.262-48.335,15.082-67.667,24.167l15.167,33.333l5.333-1.833l10.5,24.333
		l-4.833,2.167l6.333,14.333l50.22-17.667l-3.053-15.667l-5.333,1.266l-5.167-26.442l5.5-1.442L331.401,163.458z"/>
</g>
<g id="section_215">
	<path fill="none" d="M419.901,241.458h-68.333l-2.667-16l4.833-0.709l-3.639-26.666l-5.808,0.709l-7.22-36.5h82.833v36.668h-5.5v26
		h5.5V241.458z"/>
</g>
<g id="section_208">
	<path fill="none" d="M941.933,364.793c7.883,23.122,13.828,45.399,18.5,67.12L923.6,439.46l-1.5-5.867l-25.5,5.201l0.667,5.833
		l-15,2.371l-14.783-53.204l14.783-6l1.833,5.333l24.928-9l-1.762-6.167L941.933,364.793z"/>
</g>
<g id="section_209">
	<path fill="none" d="M900.433,291.626c13.81,18.962,26.664,42.615,39.167,68l-34.333,13.333l-2.667-5.114l-24.5,10.114l2.167,4.796
		l-15,6.204l-28.667-50.667l12.801-9.562l3.6,5.031l21-15.703l-3.493-5.1L900.433,291.626z"/>
</g>
<g id="section_209a">
	<path fill="none" d="M786.859,289.792l46.407,44.538l12.833-9.126l-3.741-5.145l21.599-15.05l3.475,4.201l29.833-21.584
		c-17.546-22.802-37.787-43.507-62.155-61l-22.179,29.667l4,3.334l-16.311,20.851l-3.856-2.976L786.859,289.792z"/>
</g>
<g id="section_210">
	<path fill="none" d="M770.266,189.126c23.502,9.057,43.266,20.962,60.667,34.667L808.6,252.6l-4.5-2.899l-16.815,20.883
		l4.982,3.935l-10,11.941l-43.833-25l6.167-14.333l4.667,2.667l11.192-24.425l-5.192-2.408L770.266,189.126z"/>
</g>
<g id="section_210a">
	<path fill="none" d="M698.1,163.126c28.804,6.279,51.258,14.363,67.667,24.167L750.6,220.626l-5.333-1.833l-10.5,24.333
		l4.833,2.167l-6.333,14.333l-50.22-17.667l3.053-15.666l5.333,1.833l5.167-26.583l-5.5-1.584L698.1,163.126z"/>
</g>
<g id="section_211">
	<path fill="none" d="M609.599,241.127h68.333l2.667-16h-4.833l3.639-26.666h5.808l7.22-36.169h-82.833v36.668h5.5v26h-5.5V241.127z
		"/>
</g>
<g id="section_212">
	<path fill="none" d="M548.382,241.127h55.334V224.96h-5.5v-26h5.5v-36.668h-55.334v36.668h5.5v26h-5.5V241.127z"/>
</g>
<g id="section_213">
	<path fill="none" d="M487.166,241.127H542.5V224.96H537v-26h5.5v-36.668h-55.334v36.668h5.5v26h-5.5V241.127z"/>
</g>
<g id="section_214">
	<path fill="none" d="M425.766,241.127h55.333V224.96h-5.5v-26h5.5v-36.668h-55.333v36.668h5.5v26h-5.5V241.127z"/>
</g>
<g id="section_219a">
	<path fill="none" d="M68.218,593.585c-2.983-23.912-3.753-49.065-2.833-75.167h36.833v5.333h26.667v-5.333h16l1.167,60.243
		l-15.333,2.794l-0.567-5.87l-25.433,5l0.567,6.167L68.218,593.585z"/>
</g>
<g id="section_220">
	<path fill="none" d="M87.552,666.252c-7.413-19.101-13.548-41.559-18.5-67.12l36.833-7.547l1.075,5.867l25.642-5.343l-0.667-5.691
		l15.284-2.371l14.783,53.204l-14.783,6l-1.833-5.333l-24.928,9l1.762,6.167L87.552,666.252z"/>
</g>
<g id="section_221">
	<path fill="none" d="M129.052,739.419c-12.008-16.878-25.348-41.118-39.167-68l34.333-13.333l2.667,5.114l24.5-10.114l-2.167-4.796
		l15-6.204l28.667,50.667l-12.518,9.136l-3.316-5.173l-21,15.703l2.5,5.667L129.052,739.419z"/>
</g>
<g id="section_221a">
	<path fill="none" d="M242.626,741.253l-46.407-44.538l-12.833,9.126l3.742,4.578l-21.742,15.333l-3.333-3.917l-29.833,21.584
		c22.063,26.447,43.608,50.537,62.155,61l22.179-29.667l-4-3.334l16.311-20.851l3.856,2.976L242.626,741.253z"/>
</g>
<g id="section_222">
	<path fill="none" d="M259.218,841.919c-17.478-7.546-38.139-19.742-60.667-34.667l22.333-28.807l4.5,2.474l16.816-20.741
		l-4.982-3.652l10-11.941l43.833,25l-6.167,14.333l-4.667-2.667l-11.333,24l5.333,2.833L259.218,841.919z"/>
</g>
<g id="section_222a">
	<path fill="none" d="M331.385,867.919c-24.406-5.426-46.739-13.247-67.667-24.167l15.167-33.333l5.333,1.833l10.5-24.333
		l-4.833-2.167l6.333-14.333l50.22,17.667l-3.053,15.667l-5.333-1.833l-5.167,26.583l5.5,1.583L331.385,867.919z"/>
</g>
<g id="section_223">
	<path fill="none" d="M419.885,789.918h-68.333l-2.667,16h4.833l-3.639,26.667h-5.808l-7.22,36.832h82.833v-37.356h-5.5v-25.644h5.5
		V789.918z"/>
</g>
<g id="section_207a">
	<path fill="none" d="M964.083,513.417c1-25.272,0-50.544-3-75.816l-36.567,7.149l0.709,5.606l-26.5,5.086l-0.567-5.086
		l-14.741,3.321l1.5,59.74h15.333v-6h27v6H964.083z"/>
</g>
<g id="section_207">
	<path fill="none" d="M961.25,593.917c2.158-28.903,3.706-55.872,2.833-75.167H927.25v5.333h-26.667v-5.333h-16l-1.167,60.243
		l15.333,2.794l0.709-6.154l26,5.284l-0.709,6.167L961.25,593.917z"/>
</g>
<g id="section_206">
	<path fill="none" d="M941.917,666.584c8.437-20.502,15.058-42.501,18.5-67.12l-36.55-7.547l-0.791,5.867l-26.493-5.201l0.667-5.833
		l-15-2.371l-14.783,53.204l14.783,6l1.833-5.333l24.928,9l-1.762,6.167L941.917,666.584z"/>
</g>
<g id="section_205a">
	<path fill="none" d="M900.417,739.75c15.861-24.766,29.851-48.132,39.167-68l-34.333-13.333l-2.667,5.114l-24.5-10.114l2.167-4.796
		l-15-6.204l-28.667,50.667l12.801,9.562l3.032-5.598l21.567,15.987l-3.209,5.241L900.417,739.75z"/>
</g>
<g id="section_205">
	<path fill="none" d="M786.843,741.584l46.407-44.538l12.833,9.126l-3.599,4.294l21.883,15.759l3.05-4.059l29.833,21.584
		c-19.978,24.198-41.583,45.014-62.155,61l-22.179-29.667l4-3.334l-16.311-20.851l-3.856,2.976L786.843,741.584z"/>
</g>
<g id="section_204a">
	<path fill="none" d="M770.25,842.251c18.619-8.761,39.752-20.855,60.667-34.667l-22.333-28.807l-4.5,2.474l-17.241-21.167
		l5.265-3.226l-9.858-11.941l-43.833,25l6.167,14.333l4.667-2.667l10.766,24l-4.766,2.833L770.25,842.251z"/>
</g>
<g id="section_204">
	<path fill="none" d="M698.083,868.25c23.688-5.238,46.371-12.976,67.667-24.167l-15.167-33.333l-5.333,1.833l-10.5-24.333
		l4.833-2.167l-6.333-14.333l-50.22,17.667l3.053,15.383l5.333-1.55l5.167,26.583l-5.5,1.442L698.083,868.25z"/>
</g>
<g id="section_203">
	<path fill="none" d="M609.583,789.918h68.333l2.667,15.906l-5.117,0.851l3.923,26.241l5.808-0.426l7.22,36.926h-82.833v-37.356h5.5
		v-25.644h-5.5V789.918z"/>
</g>
<g id="section_202">
	<path fill="none" d="M548.366,789.918H603.7v16.499h-5.5v25.644h5.5v37.356h-55.334v-37.356h5.5v-25.644h-5.5V789.918z"/>
</g>
<g id="section_201">
	<path fill="none" d="M487.15,789.918h55.334v16.499h-5.5v25.644h5.5v37.356H487.15v-37.356h5.5v-25.644h-5.5V789.918z"/>
</g>
<g id="section_224">
	<path fill="none" d="M425.75,789.918h55.333v16.499h-5.5v25.644h5.5v37.356H425.75v-37.356h5.5v-25.644h-5.5V789.918z"/>
</g>
<g id="section_cadillac_grill">
	<path fill="none" d="M269.965,326.375l-6.84-9C203.984,365.25,184.75,406,179.209,474.9v76.121
		c0,73.229,32.791,123.479,83.098,163.492l7.374-9.107c-50.537-37.163-79.642-91.656-79.669-154.385v-76.346
		C191.183,415.558,226.25,359,269.965,326.375z"/>
</g>
<g id="section_4">
	<path fill="none" d="M674.583,718.417l7.167,37.667c32.534-6.417,59.3-18.869,80-37.667l-22.333-30.167L674.583,718.417z
		 M587.25,253v10.878l24.5-0.047V253H587.25z"/>
</g>
<g id="section_3">
	<polygon fill="none" points="600.25,719.737 600.25,756.786 675.75,756.786 669.25,719.737 	"/>
</g>
<g id="section_2">
	<rect x="547.917" y="719.737" fill="none" width="46.5" height="37.049"/>
</g>
<g id="section_1">
	<rect x="486.917" y="719.737" fill="none" width="55.667" height="37.049"/>
</g>
<g id="section_24">
	<path fill="none" d="M435.417,719.737h45.667v37.049h-45.667V719.737z M856.083,599.464l11.384,2.841
		c1.546-7.307,2.769-15.017,3.729-23.312l-11.082-2.285C859.091,584.779,857.791,592.205,856.083,599.464z"/>
</g>
<g id="section_23">
	<path fill="none" d="M359.75,719.737h69.938v37.049c-28.708,1.199-55.031,1.57-75.771,0L359.75,719.737z"/>
</g>
<g id="section_22">
	<path fill="none" d="M354.75,718.25l-7.167,37.833c-29.893-8.049-57.004-19.9-79.667-37.833l22.167-29.667L354.75,718.25z"/>
</g>
<g id="section_10">
	<path fill="none" d="M761.75,314.417c-22.034-16.996-48.488-29.914-80-38.167l-7,38.167l64.5,28.537L761.75,314.417z"/>
</g>
<g id="section_11">
	<polygon fill="none" points="599.75,275.073 599.75,312.158 669.25,312.158 675.916,275.073 	"/>
</g>
<g id="section_12">
	<rect x="548.021" y="275.073" fill="none" width="46.498" height="37.085"/>
</g>
<g id="section_13">
	<rect x="487.274" y="275.073" fill="none" width="55.497" height="37.085"/>
</g>
<g id="section_14">
	<path fill="none" d="M481.083,312.158h-45.556v-37.085h45.556V312.158z"/>
</g>
<g id="section_15">
	<path fill="none" d="M353.75,275.073h76v37.085h-69.167L353.75,275.073z"/>
</g>
<g id="section_16">
	<path fill="none" d="M347.917,276.417l7,37.667L290.25,343.25l-22.167-29.333C288.544,299.179,315.231,286.706,347.917,276.417z"/>
</g>
<g id="section_l">
	<path fill="none" d="M847.246,448.154l-10.469,2.203c1.161,7.148,2.021,14.595,2.586,22.394v0.4l10.942-1.655
		C849.515,463.34,848.504,455.578,847.246,448.154z"/>
</g>
<g id="section_m">
	<path fill="none" d="M842.173,424.846l-10.284,3.189c1.999,7.123,3.623,14.544,4.886,22.321l10.469-2.203
		C845.864,440.001,844.187,432.253,842.173,424.846z"/>
</g>
<g id="section_o">
	<path fill="none" d="M822.18,377.569l-9.74,6.039c4.732,7.652,8.822,15.557,12.295,23.834l10.336-3.94
		C831.452,394.442,827.182,385.853,822.18,377.569z"/>
</g>
<g id="section_n">
	<path fill="none" d="M835.07,403.502l-10.336,3.94c2.772,6.606,5.152,13.451,7.156,20.593l10.284-3.189
		C840.154,417.415,837.795,410.326,835.07,403.502z"/>
</g>
<g id="section_j">
	<path fill="none" d="M850.354,494.75h-10.992v21.125h10.992V494.75z"/>
</g>
<g id="section_h">
	<path fill="none" d="M839.362,536.875v22.307l10.992,1.343v-23.649H839.362z"/>
</g>
<g id="section_i">
	<path fill="none" d="M850.354,515.875h-10.992v21h10.992V515.875z"/>
</g>
<g id="section_p">
	<path fill="none" d="M805.48,354.162l-9.626,6.612c6.224,7.433,11.742,15.002,16.586,22.834l9.74-6.039
		C817.327,369.532,811.786,361.78,805.48,354.162z"/>
</g>
<g id="section_k">
	<path fill="none" d="M850.354,472c-0.016-0.169-0.034-0.336-0.05-0.505l-10.942,1.655v21.6h10.992V472z"/>
</g>
<g id="section_f">
	<path fill="none" d="M831.686,603.991l10.652,3.732c1.954-7.409,3.584-15.169,4.94-23.344l-10.703-2.593
		C835.275,589.522,833.656,596.903,831.686,603.991z"/>
</g>
<g id="section_c">
	<path fill="none" d="M796.309,670.731l9.542,7.71c6.435-7.63,12.029-15.408,16.888-23.492l-10.39-6.329
		C807.687,656.184,802.361,663.514,796.309,670.731z"/>
</g>
<g id="section_d">
	<path fill="none" d="M812.349,648.621l10.39,6.329c4.917-8.18,9.081-16.676,12.598-25.651l-10.878-4.301
		C821.048,633.188,817.032,641.022,812.349,648.621z"/>
</g>
<g id="section_q">
	<path fill="none" d="M786.167,333.441l-8.219,8.119c6.52,6.359,12.48,12.735,17.906,19.214l9.626-6.612
		C799.702,347.183,793.283,340.315,786.167,333.441z"/>
</g>
<g id="section_b">
	<path fill="none" d="M777.682,690.483l8.408,8.576c7.337-6.832,13.897-13.664,19.761-20.618l-9.542-7.71
		C790.734,677.38,784.542,683.933,777.682,690.483z"/>
</g>
<g id="section_a">
	<path fill="none" d="M760,706.173l6.802,9.464c6.96-5.568,13.375-11.073,19.288-16.578l-8.408-8.576
		C772.219,695.699,766.335,700.913,760,706.173z"/>
</g>
<g id="section_r">
	<path fill="none" d="M767.089,316.341L760,325.241c6.399,5.462,12.376,10.884,17.948,16.318l8.219-8.119
		C780.293,327.767,773.946,322.089,767.089,316.341z"/>
</g>
<g id="section_g">
	<path fill="none" d="M839.362,559.75c-0.682,7.671-1.603,15-2.786,22.037l10.703,2.593c1.245-7.507,2.26-15.362,3.076-23.63v-0.226
		l-10.992-1.343V559.75z"/>
</g>
<g id="section_e">
	<path fill="none" d="M824.459,624.998l10.878,4.301c2.697-6.885,5.017-14.051,7.001-21.575l-10.652-3.732
		C829.661,611.279,827.265,618.26,824.459,624.998z"/>
</g>
<g id="section_60">
	<path fill="none" d="M166.778,553.769l-10.932,0.683c0.437,8.957,1.032,17.01,1.915,24.564l11.107-2.254
		C167.884,569.442,167.218,561.87,166.778,553.769z"/>
</g>
<g id="section_58">
	<path fill="none" d="M173.126,599.301l-11.345,2.921c1.723,7.251,3.91,14.44,6.707,22.028l10.953-4.076
		C176.895,613.015,174.817,606.14,173.126,599.301z"/>
</g>
<g id="section_61">
	<path fill="none" d="M166.749,553.251v-25.168h-10.959v25.23c0.018,0.382,0.037,0.76,0.055,1.139l10.932-0.683
		C166.769,553.596,166.759,553.424,166.749,553.251z"/>
</g>
<g id="section_48">
	<path fill="none" d="M346.082,763.251l-2.283,11.417c8.215,1.675,16.528,2.78,25.581,3.415l1.517-11.433
		C362.153,765.93,354.087,764.841,346.082,763.251z"/>
</g>
<g id="section_47">
	<path fill="none" d="M370.897,766.65l-1.517,11.433c7.563,0.531,15.644,0.734,24.62,0.667v-11
		C385.623,767.58,378.034,767.238,370.897,766.65z"/>
</g>
<g id="section_49">
	<path fill="none" d="M321.459,756.786l-3.58,10.738c9.014,3.066,17.415,5.41,25.919,7.144l2.283-11.417
		C338.024,761.65,330.026,759.541,321.459,756.786z"/>
</g>
<g id="section_52">
	<path fill="none" d="M255.404,723.135l-7.453,9.11c6.967,4.975,14.449,9.709,22.553,14.273l6.161-9.682
		C268.967,732.343,261.922,727.813,255.404,723.135z"/>
</g>
<g id="section_51">
	<path fill="none" d="M297.083,747.917c-7.301-3.709-14.08-7.383-20.418-11.083l-6.161,9.682c6.941,3.909,14.335,7.694,22.247,11.4
		c0.125,0.052,0.249,0.103,0.374,0.154l4.481-9.948C297.43,748.054,297.258,747.987,297.083,747.917z"/>
</g>
<g id="section_50">
	<path fill="none" d="M297.604,748.124l-4.481,9.948c8.988,3.718,17.094,6.846,24.756,9.453l3.58-10.738
		C314.067,754.408,306.25,751.55,297.604,748.124z"/>
</g>
<g id="section_62">
	<path fill="none" d="M166.749,503.75h-10.959v24.333h10.959V503.75z"/>
</g>
<g id="section_72">
	<path fill="none" d="M269.965,286.057c-6.791,4.047-13.714,8.54-20.882,13.527c-0.119,0.092-0.236,0.183-0.355,0.275l7.27,8.724
		c7.01-4.789,13.773-9.098,20.416-12.971L269.965,286.057z"/>
</g>
<g id="section_71">
	<path fill="none" d="M228.421,316.831l8.257,7.811c5.711-5.237,11.995-10.464,19.072-15.891c0.083-0.057,0.166-0.112,0.249-0.169
		l-7.27-8.724C241.068,305.78,234.399,311.344,228.421,316.831z"/>
</g>
<g id="section_74">
	<path fill="none" d="M321.338,275.46l-3.96-11.115c-8.454,2.681-16.7,5.906-24.953,9.754l5.225,10.451
		C305.453,280.987,313.279,277.982,321.338,275.46z"/>
</g>
<g id="section_73">
	<path fill="none" d="M297.65,284.55l-5.225-10.451c-7.426,3.462-14.861,7.429-22.459,11.958l6.449,9.554
		C283.581,291.433,290.607,287.765,297.65,284.55z"/>
</g>
<g id="section_77">
	<path fill="none" d="M393.75,264.25V253c-8.544,0.26-16.621,0.717-24.332,1.405l1.368,11.459
		C378.053,265.144,385.677,264.615,393.75,264.25z"/>
</g>
<g id="section_75">
	<path fill="none" d="M346.623,269.236l-2.257-11.522c-9.374,1.692-18.292,3.873-26.989,6.631l3.96,11.115
		C329.455,272.92,337.811,270.871,346.623,269.236z"/>
</g>
<g id="section_76">
	<path fill="none" d="M370.786,265.865l-1.368-11.459c-8.778,0.784-17.079,1.87-25.051,3.309l2.257,11.522
		C354.284,267.816,362.29,266.707,370.786,265.865z"/>
</g>
<g id="section_69">
	<path fill="none" d="M218.884,343.126l-8.187-7.972c-5.641,6.629-10.793,13.58-15.94,21.306l9.228,6.743
		C208.74,355.982,213.603,349.392,218.884,343.126z"/>
</g>
<g id="section_65">
	<path fill="none" d="M173.396,433.209l-11.45-3.262c-1.698,7.52-3.016,15.288-4.029,23.531l11.331,2.103
		C170.347,447.649,171.683,440.355,173.396,433.209z"/>
</g>
<g id="section_70">
	<path fill="none" d="M236.678,324.642l-8.257-7.811c-6.618,6.074-12.39,12.055-17.725,18.324l8.187,7.972
		C224.27,336.735,230.092,330.681,236.678,324.642z"/>
</g>
<g id="section_63">
	<path fill="none" d="M166.749,478.917c0.014-0.171,0.029-0.338,0.043-0.508l-10.962-0.645c-0.013,0.241-0.027,0.48-0.04,0.723
		v25.263h10.959V478.917z"/>
</g>
<g id="section_64">
	<path fill="none" d="M169.248,455.581l-11.331-2.103c-0.938,7.628-1.614,15.664-2.086,24.287l10.962,0.645
		C167.491,470.076,168.278,462.579,169.248,455.581z"/>
</g>
<g id="section_66">
	<path fill="none" d="M179.569,412.386l-11.163-4.925c-2.6,7.4-4.728,14.815-6.46,22.486l11.45,3.262
		C175.057,426.281,177.072,419.489,179.569,412.386z"/>
</g>
<g id="section_68">
	<path fill="none" d="M190.083,386.417c4.724-8.527,9.262-16.17,13.901-23.214l-9.228-6.743c-4.858,7.291-9.711,15.271-14.967,24.32
		c-0.042,0.084-0.083,0.168-0.124,0.252l10.348,5.544C190.036,386.522,190.059,386.47,190.083,386.417z"/>
</g>
<g id="section_67">
	<path fill="none" d="M190.013,386.575l-10.348-5.544c-4.492,9.052-8.202,17.731-11.259,26.429l11.163,4.925
		C182.379,404.392,185.799,396.002,190.013,386.575z"/>
</g>
<g id="section_28">
	<path fill="none" d="M809.849,689.406l9.269,7.641c5.757-6.719,10.917-13.725,15.978-21.498l-9.606-6.504
		C820.631,676.254,815.532,682.912,809.849,689.406z"/>
</g>
<g id="section_26">
	<path fill="none" d="M839.5,645.75c-0.046,0.085-0.092,0.168-0.138,0.252l10.022,5.456c0.039-0.07,0.077-0.138,0.116-0.208
		c4.785-8.838,8.681-17.59,11.846-26.73l-11.371-4.333C847.161,628.164,843.725,636.482,839.5,645.75z"/>
</g>
<g id="section_27">
	<path fill="none" d="M825.49,669.045l9.606,6.504c4.711-7.235,9.339-15.135,14.289-24.091l-10.022-5.456
		C834.748,654.448,830.232,662.01,825.49,669.045z"/>
</g>
<g id="section_25">
	<path fill="none" d="M849.975,620.187l11.371,4.333c2.457-7.096,4.472-14.427,6.12-22.215l-11.384-2.841
		C854.456,606.383,852.457,613.153,849.975,620.187z"/>
</g>
<g id="section_19">
	<path fill="none" d="M873.25,478c-0.401-8.788-0.957-16.783-1.796-24.323l-11.561,1.765c0.971,7.271,1.731,14.988,2.345,23.396
		l11.012-0.598V478z"/>
</g>
<g id="section_20">
	<path fill="none" d="M873.25,478.24l-11.012,0.598c0.004,0.054,0.008,0.108,0.012,0.162v25h11V478.24z"/>
</g>
<g id="section_21">
	<path fill="none" d="M862.25,504v24.5h11V504H862.25z"/>
</g>
<g id="section_35">
	<path fill="none" d="M682.75,763.5c-9.305,1.547-16.696,2.545-24.244,3.193l1.393,11.226c8.544-0.752,16.422-1.953,25.101-3.419
		c0.066-0.015,0.13-0.031,0.196-0.046l-2.166-11.017C682.937,763.458,682.844,763.479,682.75,763.5z"/>
</g>
<g id="section_39">
	<path fill="none" d="M562.875,767.75v11H587v-11H562.875z"/>
</g>
<g id="section_42">
	<path fill="none" d="M490.25,767.75v11h24v-11H490.25z"/>
</g>
<g id="section_40">
	<path fill="none" d="M538.875,767.75v11h24v-11H538.875z"/>
</g>
<g id="section_41">
	<path fill="none" d="M514.25,767.75v11h24.625v-11H514.25z"/>
</g>
<g id="section_29">
	<path fill="none" d="M792.058,707.526l8.548,8.358c7.003-6.298,13.029-12.439,18.511-18.837l-9.269-7.641
		C804.528,695.484,798.693,701.419,792.058,707.526z"/>
</g>
<g id="section_45">
	<path fill="none" d="M417.5,767.75v11h24.375v-11H417.5z"/>
</g>
<g id="section_43">
	<path fill="none" d="M466,767.75v11h24.25v-11H466z"/>
</g>
<g id="section_44">
	<path fill="none" d="M441.875,767.75v11H466v-11H441.875z"/>
</g>
<g id="section_46">
	<path fill="none" d="M394,767.75v11h23.5v-11H394z"/>
</g>
<g id="section_38">
	<path fill="none" d="M587,767.75v11h24.5v-11H587z"/>
</g>
<g id="section_30">
	<path fill="none" d="M773.75,723.25c-0.225,0.152-0.447,0.301-0.67,0.452l7.313,8.813c0.119-0.089,0.238-0.176,0.357-0.265
		c7.471-5.729,14.004-11.103,19.856-16.366l-8.548-8.358C786.559,712.588,780.512,717.769,773.75,723.25z"/>
</g>
<g id="section_31">
	<path fill="none" d="M753.211,736.424l6.332,10.202c6.736-4.072,13.58-8.718,20.849-14.112l-7.313-8.813
		C766.07,728.431,759.562,732.64,753.211,736.424z"/>
</g>
<g id="section_33">
	<path fill="none" d="M707.98,756.858l3.723,10.66c8.901-2.682,17.023-5.588,24.822-8.971l-4.853-10.732
		C724.261,751.2,716.539,754.166,707.98,756.858z"/>
</g>
<g id="section_32">
	<path fill="none" d="M731.671,747.814l4.853,10.732c7.844-3.404,15.363-7.292,23.02-11.92l-6.332-10.202
		C745.997,740.722,738.986,744.473,731.671,747.814z"/>
</g>
<g id="section_36">
	<path fill="none" d="M635.75,767.75h-0.375v11h0.375c9.135,0.125,16.883-0.191,24.149-0.831l-1.393-11.226
		C651.584,767.288,644.531,767.589,635.75,767.75z"/>
</g>
<g id="section_34">
	<path fill="none" d="M683.03,763.437l2.166,11.017c9.707-2.253,18.428-4.502,26.506-6.936l-3.723-10.66
		C700.435,759.231,692.237,761.391,683.03,763.437z"/>
</g>
<g id="section_37">
	<path fill="none" d="M611.5,767.75v11h23.875v-11H611.5z"/>
</g>
<g id="section_5">
	<path fill="none" d="M611.75,253v10.831l23.5-0.045V253H611.75z"/>
</g>
<g id="section_6">
	<path fill="none" d="M635.766,253h-0.516v10.786l0.516-0.001c8.037,0.123,15.622,0.488,22.896,1.127l1.437-10.773
		C652.49,253.524,644.436,253.159,635.766,253z"/>
</g>
<g id="section_9">
	<path fill="none" d="M711.548,264.137l-3.168,10.936c7.607,2.554,15.249,5.599,23.14,9.19l4.785-10.188
		C727.852,270.128,719.714,266.844,711.548,264.137z"/>
</g>
<g id="section_8">
	<path fill="none" d="M684.899,257.329l-1.94,10.987c8.625,1.704,17.003,3.93,25.422,6.757l3.168-10.936
		C702.839,261.249,694.095,259.015,684.899,257.329z"/>
</g>
<g id="section_7">
	<path fill="none" d="M660.098,254.139l-1.437,10.773c8.448,0.743,16.476,1.858,24.297,3.404l1.94-10.987
		C677.049,255.89,668.87,254.848,660.098,254.139z"/>
</g>
<g id="section_79">
	<path fill="none" d="M417.75,253v11.204l24-0.046V253H417.75z"/>
</g>
<g id="section_80">
	<path fill="none" d="M441.75,253v11.158l24.75-0.047V253H441.75z"/>
</g>
<g id="section_78">
	<path fill="none" d="M393.75,253v11.25l24-0.046V253H393.75z"/>
</g>
<g id="section_82">
	<path fill="none" d="M490.5,253v11.064l24.523-0.047V253H490.5z"/>
</g>
<g id="section_81">
	<path fill="none" d="M466.5,253v11.11l24-0.046V253H466.5z"/>
</g>
<g id="section_116">
	<path fill="none" d="M364.584,440.75l13-5.333l-16.5-89.667l-5.667,2l-5.974-31.198l-54.026,24.367l19.167,25.33l-4.667,2.833
		L364.584,440.75z"/>
</g>
<g id="section_117">
	<path fill="none" d="M344.084,459.25l15.833-15.167l-54.167-70.804l-3.833,3.304l-19.667-25.167l4-4.667l-10-13.167
		c-26.143,22.346-46.723,47.446-61,75.667l14.667,5.5l3.667-4.5l29.167,11.333l-3.667,4.667L344.084,459.25z"/>
</g>
<g id="section_118">
	<path fill="none" d="M337.084,490.75l4.5-26.833l-84-32.5l-0.833,5.333l-29.667-11.5l0.833-5.333l-15-5.833
		c-7.115,22.245-11.68,43.858-13,64.667l15.833,1l1-5.167l31.667,2.667l-1,5.833L337.084,490.75z"/>
</g>
<g id="section_119">
	<path fill="none" d="M337.084,535.25v-38.667l-89.5-8.167v6.167l-32-3.167v-5.667l-15.667-1.5c-1.485,21.916-1.628,43.004,0,63
		l15.833-1v-6.167l31.667-2.333v5.667L337.084,535.25z"/>
</g>
<g id="section_120">
	<path fill="none" d="M341.584,568.083l-4-27.167l-89.5,7.5v6.083l-31.5,2.75v-5.667l-16.667,1.667
		c2.556,20.854,7.117,42.453,13.333,64.667l14.667-5.5l-1.667-5.667l30.333-11.333l1.333,5.167L341.584,568.083z"/>
</g>
<g id="section_121">
	<path fill="none" d="M291.917,667.75l-10,13l3.833,4.167l-9.917,13.333c-24.02-19.488-44.317-44.5-60.916-75l14.833-6.167
		l3.667,4.833l14.833-6.125L291.917,667.75z M298.7,658.074l-4.042,5.651l-41.833-48.691l6.017-2.759L298.7,658.074z
		 M359.75,588.583l-15.5-15.5l-84.5,33l45.333,52.417L359.75,588.583z"/>
</g>
<g id="section_122">
	<path fill="none" d="M369.25,593.75l-4.75-2.606l-55,72.356l4.5,2l-18.124,25.741l53.679,24.626L355.5,684.5l5.75,2.583l6.5-38.083
		L349,640.75L369.25,593.75z"/>
</g>
<g id="section_123">
	<path fill="none" d="M429.25,597.583v89.5h-5.667v32.654h-57l5.5-32.654h-5.5l16.333-89.5H429.25z"/>
</g>
<g id="section_124">
	<path fill="none" d="M475.917,698.25h-35.508v-5.5h35.508V698.25z M475.917,703.75h-35.508v15.987h35.508V703.75z M481.083,597.583
		h-45.667v89.5h45.667V597.583z"/>
</g>
<g id="section_101">
	<path fill="none" d="M536.417,719.737v-32.654h6.167v-89.5h-55.667v89.5h5.833v32.654H536.417z"/>
</g>
<g id="section_102">
	<path fill="none" d="M594.417,687.083v-89.5h-46.5v89.5h6v32.654h35v-32.654H594.417z"/>
</g>
<g id="section_103">
	<path fill="none" d="M600.25,597.583h46.833l16.333,90h-5.833l5.833,32.153h-57.833v-32.654h-5.333V597.583z"/>
</g>
<g id="section_104">
	<path fill="none" d="M665.015,591.144l-12.749,6.641l15.749,88.604l6.75-2.625l4.89,32.293l54.963-25.574l-19.73-24.343l5.25-2.625
		L665.015,591.144z"/>
</g>
<g id="section_105">
	<path fill="none" d="M685.166,573.355l-15.167,15.167l53.833,70.833l3.833-4l19.667,25.333l-4.167,4.167l10.5,13.5
		c25.583-20.533,45.898-45.347,60.667-74.667l-14.333-5.667l-3.167,4.667l-29.5-12.167l2.333-4.833L685.166,573.355z"/>
</g>
<g id="section_106">
	<path fill="none" d="M691.998,541.355l-4.667,27.333l84.5,32.5l1.167-5.667l29.667,11.333l-1.667,5.667l15.333,5.5
		c5.677-21.617,10.249-43.183,13-64.667l-16.333-1.5l-0.667,5.5l-31.5-2.833l0.333-5.667L691.998,541.355z"/>
</g>
<g id="section_107">
	<path fill="none" d="M691.998,496.858v38.664l90,7.833v-5.667l32.007,3l-0.674,6.5l16,0.833v-63.664l-15.326,1.667v5.667
		l-32.341,3.167v-5.5L691.998,496.858z"/>
</g>
<g id="section_108">
	<path fill="none" d="M816.498,414.358c6.546,21.124,10.738,42.696,12.833,64.667l-16,1.5l-0.833-5.5l-32,3.333l0.667,5.167
		l-89.5,7.333l-4.333-26.5l84.667-32.333l1.667,5.333l29-11.833l-1.167-5L816.498,414.358z"/>
</g>
<g id="section_109">
	<path fill="none" d="M754.009,333.857c24.266,21.238,44.332,46.284,59.997,75.319l-14.624,5.25l-3.375-4.125l-29.249,11.624l3,4.5
		l-85.871,32.853l-13.874-15.604l53.622-70.121l3.75,3.75l19.874-25.499l-3.75-4.5L754.009,333.857z"/>
</g>
<g id="section_110">
	<path fill="none" d="M652.641,434.478l16.124-89.697l5.485,3.469l5.647-31.556l54.187,23.974l-18.833,25.749l5,3l-55.167,71.167
		L652.641,434.478z"/>
</g>
<g id="section_111">
	<path fill="none" d="M605.75,312.158v32.623h-6v89.62h47l16.5-89.62h-5.333l5.333-32.623H605.75z"/>
</g>
<g id="section_112">
	<path fill="none" d="M588.917,339.917h-35.333v-6.333h35.333V339.917z M588.917,312.158h-35.333v17.092h35.333V312.158z
		 M594.519,344.781h-46.498v89.62h46.498V344.781z"/>
</g>
<g id="section_114">
	<path fill="none" d="M476.083,339.917h-35.674v-6.333h35.674V339.917z M476.083,312.158h-35.674v17.092h35.674V312.158z
		 M482.024,344.781h-46.498v89.62h46.498V344.781z"/>
</g>
<g id="section_113">
	<path fill="none" d="M492.149,312.158h45.373v32.623h5.25v89.62h-55.497v-89.62h4.875V312.158z"/>
</g>
<g id="section_115">
	<path fill="none" d="M383.029,434.402h46.123v-89.62h-5.25v-32.623H366.53l4.875,32.623h-4.875L383.029,434.402z"/>
</g>
<g id="section_press-area">
	<path fill="none" d="M146.668,253.929c67.582-64.679,133.987-97.446,234.023-102.01H664.22C723,154.5,788.5,180.25,838.237,216.425
		l7.501-8.251c-66.085-44.738-111.238-61.425-191.269-67.507H386.692c-102.942,4.082-176.721,36.519-249.025,105.761
		L146.668,253.929z"/>
</g>
<g id="section_53">
	<path fill="none" d="M236.785,708.088l-8.608,8.136c6.124,5.642,12.68,10.957,19.773,16.021l7.453-9.11
		C248.689,718.316,242.531,713.34,236.785,708.088z"/>
</g>
<g id="section_54">
	<path fill="none" d="M219.428,689.941l-9.48,7.046c5.672,6.844,11.706,13.226,18.23,19.236l8.608-8.136
		C230.578,702.413,224.853,696.414,219.428,689.941z"/>
</g>
<g id="section_55">
	<path fill="none" d="M203.959,669.079l-9.643,6.552c4.946,7.613,10.118,14.704,15.631,21.356l9.48-7.046
		C214.034,683.506,208.936,676.603,203.959,669.079z"/>
</g>
<g id="section_56">
	<path fill="none" d="M190.083,646.084c-0.015-0.032-0.029-0.063-0.043-0.094l-10.113,4.947c4.648,8.821,9.405,17.022,14.39,24.695
		l9.643-6.552C199.277,662.002,194.701,654.379,190.083,646.084z"/>
</g>
<g id="section_57">
	<path fill="none" d="M179.441,620.174l-10.953,4.076c3.031,8.224,6.778,16.917,11.429,26.667c0.003,0.006,0.007,0.013,0.01,0.019
		l10.113-4.947C185.823,636.778,182.33,628.293,179.441,620.174z"/>
</g>
<g id="section_59">
	<path fill="none" d="M168.868,576.762l-11.107,2.254c0.952,8.142,2.238,15.708,4.02,23.205l11.345-2.921
		C171.284,591.853,169.901,584.446,168.868,576.762z"/>
</g>
<g id="section_18">
	<path fill="none" d="M867.427,429.792l-11.508,3.314c1.626,7.124,2.923,14.468,3.974,22.336l11.561-1.765
		C870.521,445.307,869.238,437.499,867.427,429.792z"/>
</g>
<g id="section_17">
	<path fill="none" d="M860.758,407.913l-10.813,4.1c2.378,7.016,4.342,13.945,5.974,21.094l11.508-3.314
		C865.721,422.537,863.548,415.371,860.758,407.913z"/>
</g>
<g id="section_16_1_">
	<path fill="none" d="M849,381.5c-0.002-0.004-0.004-0.008-0.006-0.012l-9.456,4.634c0.071,0.127,0.142,0.251,0.212,0.378
		c4.056,8.956,7.409,17.295,10.194,25.513l10.813-4.1C857.664,399.643,853.813,391.013,849,381.5z"/>
</g>
<g id="section_15_1_">
	<path fill="none" d="M835.112,357.265l-9.467,5.979c4.634,6.931,9.203,14.486,13.892,22.878l9.456-4.634
		C844.378,372.682,839.812,364.668,835.112,357.265z"/>
</g>
<g id="section_14_1_">
	<path fill="none" d="M819.406,335.471l-9.02,7.483c5.312,6.229,10.323,12.906,15.259,20.29l9.467-5.979
		C830.103,349.374,824.942,342.178,819.406,335.471z"/>
</g>
<g id="section_26_1_">
	<path fill="none" d="M113.043,294.534l-9-6.375c-18.506,27.208-30.495,49.733-39.375,74.478l10.73,4.573
		C84.069,344.044,95.778,321.582,113.043,294.534z"/>
</g>
<g id="section_24_1_">
	<path fill="none" d="M56.046,443.777c0.021-0.125,0.043-0.248,0.064-0.373l-10.571-2.18c-2.144,24.371-3.503,48.575-3.509,74.526
		H54.25C54.259,493.555,54.814,471.689,56.046,443.777z"/>
</g>
<g id="section_2_1_">
	<path fill="none" d="M948.319,325.241l-10.995,5.154c9.226,17.156,16.779,34.495,22.65,52.848l11.582-3.217
		C965.648,360.883,957.973,342.944,948.319,325.241z"/>
</g>
<g id="section_1_1_">
	<path fill="none" d="M917.25,277.25l-9,6.5c11.052,15.812,20.743,31.155,29.074,46.645l10.995-5.154
		C939.621,309.292,929.32,293.531,917.25,277.25z"/>
</g>
<g id="section_7_1_">
	<path fill="none" d="M959.612,648.996l10.392,3.615c5.574-16.907,10.006-34.395,13.246-52.36l0.087-1.181l-12.557-1.284
		C968.175,616.198,964.518,633.004,959.612,648.996z"/>
</g>
<g id="section_5_1_">
	<path fill="none" d="M987.25,485.75c-0.002-0.084-0.006-0.166-0.009-0.25H975.25v60.75h12V485.75z"/>
</g>
<g id="section_8_1_">
	<path fill="none" d="M937.757,701.556l9.748,4.617c8.848-17.056,16.366-34.957,22.5-53.563l-10.392-3.615
		C954.036,667.174,946.847,684.306,937.757,701.556z"/>
</g>
<g id="section_3_1_">
	<path fill="none" d="M971.556,380.026l-11.582,3.217c5.152,16.106,9.009,32.996,11.565,51.234l11.45-1.968
		C980.384,413.722,976.618,396.43,971.556,380.026z"/>
</g>
<g id="section_4_1_">
	<path fill="none" d="M982.988,432.51l-11.45,1.968c2.213,15.792,3.453,32.591,3.711,50.772v0.25h11.991
		C986.649,466.425,985.26,448.899,982.988,432.51z"/>
</g>
<g id="section_11_1_">
	<path fill="none" d="M794.695,843.02l6.139,9.13c24.878-12.681,47.568-28.03,67.906-45.66l-7.926-7.926
		C840.389,816.121,818.348,830.962,794.695,843.02z"/>
</g>
<g id="section_14_2_">
	<path fill="none" d="M556.271,881.25v11.5h82.871v-11.5H556.271z"/>
</g>
<g id="section_15_2_">
	<path fill="none" d="M473.775,881.25v11.5h82.496v-11.5H473.775z"/>
</g>
<g id="section_9_1_">
	<path fill="none" d="M909.012,748.368l7.95,6.394c11.474-15.255,21.676-31.497,30.543-48.59l-9.748-4.617
		C929.725,716.796,920.21,732.131,909.012,748.368z"/>
</g>
<g id="section_16_2_">
	<path fill="none" d="M390.25,881.25v11.5h83.525v-11.5H390.25z"/>
</g>
<g id="section_10_1_">
	<path fill="none" d="M908.75,748.75c-14.841,18.486-30.822,35.102-47.936,49.814l7.926,7.926
		c17.943-15.554,34.052-32.887,48.222-51.727l-7.95-6.394C908.924,748.496,908.838,748.622,908.75,748.75z"/>
</g>
<g id="section_6_1_">
	<path fill="none" d="M975.25,546.25v1c-0.818,18.313-2.271,34.994-4.47,50.534l12.557,1.284l3.913-52.819H975.25z"/>
</g>
<g id="section_13_1_">
	<path fill="none" d="M639.75,881.25h-0.609v11.5h0.609c28.071-1.187,55-3.599,79.886-10.343l-3.117-10.785
		C692.23,877.256,666.64,880.294,639.75,881.25z"/>
</g>
<g id="section_12_1_">
	<path fill="none" d="M716.519,871.622l3.117,10.785c29.614-6.157,56.274-17.552,81.198-30.257l-6.139-9.13
		C770.342,855.434,744.282,865.182,716.519,871.622z"/>
</g>
<g id="section_17_1_">
	<path fill="none" d="M390.25,881.25c-30.358-1.351-57.403-4.979-82.325-11.066l-3.003,11.411
		c26.648,6.541,54.978,10.265,85.328,11.155V881.25z"/>
</g>
<g id="section_18_1_">
	<path fill="none" d="M228.172,838.907l-5.456,10.911c25.664,13.992,52.918,24.589,82.206,31.777l3.003-11.411
		C279.109,863.146,253.132,852.819,228.172,838.907z"/>
</g>
<g id="section_19_1_">
	<path fill="none" d="M165.166,795.134c-0.135-0.128-0.266-0.255-0.4-0.382l-7.897,8.959c0.016,0.016,0.031,0.031,0.047,0.047
		c20.858,18.104,42.685,33.457,65.801,46.06l5.456-10.911C206.81,827,186.189,812.472,165.166,795.134z"/>
</g>
<g id="section_20_1_">
	<path fill="none" d="M113.226,736.819l-8.645,7.086c13.907,19.159,31.02,38.721,52.288,59.806l7.897-8.959
		C144.223,775.244,127.255,756.223,113.226,736.819z"/>
</g>
<g id="section_21_1_">
	<path fill="none" d="M74.751,664.92l-10.12,4.14c9.304,25.892,21.937,50.031,39.949,74.845l8.645-7.086
		C96.634,713.872,84.156,690.385,74.751,664.92z"/>
</g>
<g id="section_22_1_">
	<path fill="none" d="M55.786,588.508l-10.046,2.368c4.537,28.837,10.294,54.26,18.891,78.184l10.12-4.14
		C66.101,641.498,60.047,616.401,55.786,588.508z"/>
</g>
<g id="section_23_1_">
	<path fill="none" d="M55.671,587.769c-0.916-28.297-1.43-50.315-1.421-72.019H42.031c-0.005,22.843,1.037,47.039,3.516,73.894
		c0.064,0.412,0.129,0.821,0.193,1.231l10.046-2.368C55.748,588.261,55.709,588.017,55.671,587.769z"/>
</g>
<g id="section_25_1_">
	<path fill="none" d="M75.399,367.211l-10.73-4.573c-8.101,22.575-13.616,46.997-19.123,78.514
		c-0.002,0.024-0.004,0.048-0.006,0.072l10.571,2.18C61.186,413.871,66.797,390.194,75.399,367.211z"/>
</g>
<g id="section_12_2_">
	<path fill="none" d="M780.668,299.9l-6.911,9.448c6.934,5.15,13.21,10.243,19.012,15.495l8.402-8.501
		C794.948,310.674,788.176,305.254,780.668,299.9z"/>
</g>
<g id="section_13_2_">
	<path fill="none" d="M801.172,316.341l-8.402,8.501c6.356,5.752,12.146,11.696,17.616,18.112l9.02-7.483
		C813.791,328.667,807.789,322.364,801.172,316.341z"/>
</g>
<g id="section_11_2_">
	<path fill="none" d="M758.584,285.534l-5.073,9.75c7.363,4.836,14.066,9.472,20.247,14.063l6.911-9.448
		C773.944,295.104,766.631,290.359,758.584,285.534z"/>
</g>
<g id="section_10_2_">
	<path fill="none" d="M758.584,285.534c-7.791-4.329-15.147-8.129-22.278-11.459l-4.785,10.188
		c7.078,3.221,14.356,6.88,21.99,11.021L758.584,285.534z"/>
</g>
<g id="section_22_2_">
	<path fill="none" d="M862.25,553.313l10.977,1.098c0.007-0.137,0.016-0.273,0.023-0.41v-25.5h-11V553.313z"/>
</g>
<g id="section_23_2_">
	<path fill="none" d="M862.25,553.75c-0.559,8.361-1.242,15.905-2.136,22.958l11.082,2.285c0.885-7.648,1.546-15.794,2.031-24.583
		l-10.977-1.098V553.75z"/>
</g>
<g id="section_1_2_">
	<path fill="none" d="M515.023,253v11.017l23.477-0.045V253H515.023z"/>
</g>
<g id="section_2_2_">
	<path fill="none" d="M538.5,253v10.972l24.75-0.047V253H538.5z"/>
</g>
<g id="section_3_2_">
	<path fill="none" d="M563.25,253v10.925l24-0.046V253H563.25z"/>
</g>
</svg>
