<?xml version="1.0" encoding="utf-8"?>
<!-- Generator: Adobe Illustrator 18.1.1, SVG Export Plug-In . SVG Version: 6.00 Build 0)  -->
<svg version="1.1" xmlns="http://www.w3.org/2000/svg" xmlns:xlink="http://www.w3.org/1999/xlink" x="0px" y="0px"
	 viewBox="0 0 4096 4096" enable-background="new 0 0 4096 4096" xml:space="preserve">
<g id="section_219">
	<path fill="none" d="M272.9,1751.2c-9.7,110.3-15,213-11.3,300.7h147.3v-21.3h106.7v21.3h64l4.7-241l-61.3-11.2l-2.8,23.5l-104-20
		l2.8-24.7L272.9,1751.2z"/>
</g>
<g id="section_218">
	<path fill="none" d="M350.3,1460.5c-35.2,103-60.2,193.2-74,268.5l147.3,30.2l4.3-23.5l102.6,20.8l-2.7,23.3l61.1,9.5l59.1-212.8
		l-59.1-24l-7.3,21.3l-99.7-36l7-24.7L350.3,1460.5z"/>
</g>
<g id="section_217a">
	<path fill="none" d="M516.3,1167.8c-68.2,93.6-121.5,184.5-156.7,272l137.3,53.3l10.7-20.5l98,40.5l-8.7,19.2l60,24.8l114.7-202.7
		l-51.2-38.2l-13.3,21.8l-86.3-63.9l13.4-21L516.3,1167.8z"/>
</g>
<g id="section_217">
	<path fill="none" d="M970.6,1160.5l-185.6,178.2l-51.3-36.5l15-20.6l-88.1-60.2l-12.2,16.8l-119.3-86.3
		c62.6-76,149.1-158.3,248.6-244l88.7,118.7l-16,13.3l65.2,83.4l15.4-11.9L970.6,1160.5z"/>
</g>
<g id="section_216a">
	<path fill="none" d="M1036.9,757.8c-87.4,40.2-168,86.7-242.7,138.7l89.3,115.2l18-12.2l67.3,85.2l-19.9,14.6l40,47.8l175.3-100
		l-24.7-57.3l-18.7,10.7l-45.3-96l21.3-11.3L1036.9,757.8z"/>
</g>
<g id="section_216">
	<path fill="none" d="M1325.6,653.8c-100.2,29-193.3,60.3-270.7,96.7l60.7,133.3l21.3-7.3l42,97.3l-19.3,8.7l25.3,57.3l200.9-70.7
		l-12.2-62.7l-21.3,5.1l-20.7-105.8l22-5.8L1325.6,653.8z"/>
</g>
<g id="section_215">
	<path fill="none" d="M1679.6,965.8h-273.3l-10.7-64l19.3-2.8l-14.6-106.7l-23.2,2.8l-28.9-146h331.3v146.7h-22v104h22V965.8z"/>
</g>
<g id="section_208">
	<path fill="none" d="M3767.7,1459.2c31.5,92.5,55.3,181.6,74,268.5l-147.3,30.2l-6-23.5l-102,20.8l2.7,23.3l-60,9.5l-59.1-212.8
		l59.1-24l7.3,21.3l99.7-36l-7-24.7L3767.7,1459.2z"/>
</g>
<g id="section_209">
	<path fill="none" d="M3601.7,1166.5c55.2,75.8,106.7,170.5,156.7,272l-137.3,53.3l-10.7-20.5l-98,40.5l8.7,19.2l-60,24.8
		l-114.7-202.7l51.2-38.2l14.4,20.1l84-62.8l-14-20.4L3601.7,1166.5z"/>
</g>
<g id="section_209a">
	<path fill="none" d="M3147.4,1159.2l185.6,178.2l51.3-36.5l-15-20.6l86.4-60.2l13.9,16.8l119.3-86.3
		c-70.2-91.2-151.1-174-248.6-244l-88.7,118.7l16,13.3l-65.2,83.4l-15.4-11.9L3147.4,1159.2z"/>
</g>
<g id="section_210">
	<path fill="none" d="M3081.1,756.5c94,36.2,173.1,83.8,242.7,138.7l-89.3,115.2l-18-11.6l-67.3,83.5l19.9,15.7l-40,47.8l-175.3-100
		l24.7-57.3l18.7,10.7l44.8-97.7l-20.8-9.6L3081.1,756.5z"/>
</g>
<g id="section_210a">
	<path fill="none" d="M2792.4,652.5c115.2,25.1,205,57.5,270.7,96.7l-60.7,133.3l-21.3-7.3l-42,97.3l19.3,8.7l-25.3,57.3
		l-200.9-70.7l12.2-62.7l21.3,7.3l20.7-106.3l-22-6.3L2792.4,652.5z"/>
</g>
<g id="section_211">
	<path fill="none" d="M2438.4,964.5h273.3l10.7-64h-19.3l14.6-106.7h23.2l28.9-144.7h-331.3v146.7h22v104h-22V964.5z"/>
</g>
<g id="section_212">
	<path fill="none" d="M2193.5,964.5h221.3v-64.7h-22v-104h22V649.2h-221.3v146.7h22v104h-22V964.5z"/>
</g>
<g id="section_213">
	<path fill="none" d="M1948.7,964.5H2170v-64.7h-22v-104h22V649.2h-221.3v146.7h22v104h-22V964.5z"/>
</g>
<g id="section_214">
	<path fill="none" d="M1703.1,964.5h221.3v-64.7h-22v-104h22V649.2h-221.3v146.7h22v104h-22V964.5z"/>
</g>
<g id="section_219a">
	<path fill="none" d="M272.9,2374.3c-11.9-95.6-15-196.3-11.3-300.7h147.3v21.3h106.7v-21.3h64l4.7,241l-61.3,11.2l-2.3-23.5
		l-101.7,20l2.3,24.7L272.9,2374.3z"/>
</g>
<g id="section_220">
	<path fill="none" d="M350.2,2665c-29.7-76.4-54.2-166.2-74-268.5l147.3-30.2l4.3,23.5l102.6-21.4l-2.7-22.8l61.1-9.5L648,2549
		l-59.1,24l-7.3-21.3l-99.7,36l7,24.7L350.2,2665z"/>
</g>
<g id="section_221">
	<path fill="none" d="M516.2,2957.7c-48-67.5-101.4-164.5-156.7-272l137.3-53.3l10.7,20.5l98-40.5l-8.7-19.2l60-24.8L771.5,2771
		l-50.1,36.5l-13.3-20.7l-84,62.8l10,22.7L516.2,2957.7z"/>
</g>
<g id="section_221a">
	<path fill="none" d="M970.5,2965l-185.6-178.2l-51.3,36.5l15,18.3l-87,61.3l-13.3-15.7l-119.3,86.3
		c88.3,105.8,174.4,202.1,248.6,244l88.7-118.7l-16-13.3l65.2-83.4l15.4,11.9L970.5,2965z"/>
</g>
<g id="section_222">
	<path fill="none" d="M1036.9,3367.7c-69.9-30.2-152.6-79-242.7-138.7l89.3-115.2l18,9.9l67.3-83l-19.9-14.6l40-47.8l175.3,100
		l-24.7,57.3l-18.7-10.7l-45.3,96l21.3,11.3L1036.9,3367.7z"/>
</g>
<g id="section_222a">
	<path fill="none" d="M1325.5,3471.7c-97.6-21.7-187-53-270.7-96.7l60.7-133.3l21.3,7.3l42-97.3l-19.3-8.7l25.3-57.3l200.9,70.7
		l-12.2,62.7l-21.3-7.3l-20.7,106.3l22,6.3L1325.5,3471.7z"/>
</g>
<g id="section_223">
	<path fill="none" d="M1679.5,3159.7h-273.3l-10.7,64h19.3l-14.6,106.7h-23.2l-28.9,147.3h331.3v-149.4h-22v-102.6h22V3159.7z"/>
</g>
<g id="section_207a">
	<path fill="none" d="M3856.3,2053.7c4-101.1,0-202.2-12-303.3l-146.3,28.6l2.8,22.4l-106,20.3l-2.3-20.3l-59,13.3l6,239h61.3v-24
		h108v24H3856.3z"/>
</g>
<g id="section_207">
	<path fill="none" d="M3845,2375.7c8.6-115.6,14.8-223.5,11.3-300.7H3709v21.3h-106.7V2075h-64l-4.7,241l61.3,11.2l2.8-24.6
		l104,21.1l-2.8,24.7L3845,2375.7z"/>
</g>
<g id="section_206">
	<path fill="none" d="M3767.7,2666.3c33.7-82,60.2-170,74-268.5l-146.2-30.2l-3.2,23.5l-106-20.8l2.7-23.3l-60-9.5l-59.1,212.8
		l59.1,24l7.3-21.3l99.7,36l-7,24.7L3767.7,2666.3z"/>
</g>
<g id="section_205a">
	<path fill="none" d="M3601.7,2959c63.4-99.1,119.4-192.5,156.7-272l-137.3-53.3l-10.7,20.5l-98-40.5l8.7-19.2l-60-24.8
		l-114.7,202.7l51.2,38.2l12.1-22.4l86.3,63.9l-12.8,21L3601.7,2959z"/>
</g>
<g id="section_205">
	<path fill="none" d="M3147.4,2966.3l185.6-178.2l51.3,36.5l-14.4,17.2l87.5,63l12.2-16.2L3589,2975
		c-79.9,96.8-166.3,180.1-248.6,244l-88.7-118.7l16-13.3l-65.2-83.4l-15.4,11.9L3147.4,2966.3z"/>
</g>
<g id="section_204a">
	<path fill="none" d="M3081,3369c74.5-35,159-83.4,242.7-138.7l-89.3-115.2l-18,9.9l-69-84.7l21.1-12.9l-39.4-47.8l-175.3,100
		l24.7,57.3l18.7-10.7l43.1,96l-19.1,11.3L3081,3369z"/>
</g>
<g id="section_204">
	<path fill="none" d="M2792.3,3473c94.8-21,185.5-51.9,270.7-96.7l-60.7-133.3l-21.3,7.3l-42-97.3l19.3-8.7L2933,3087l-200.9,70.7
		l12.2,61.5l21.3-6.2l20.7,106.3l-22,5.8L2792.3,3473z"/>
</g>
<g id="section_203">
	<path fill="none" d="M2438.3,3159.7h273.3l10.7,63.6l-20.5,3.4l15.7,105l23.2-1.7l28.9,147.7h-331.3v-149.4h22v-102.6h-22V3159.7z"
		/>
</g>
<g id="section_202">
	<path fill="none" d="M2193.5,3159.7h221.3v66h-22v102.6h22v149.4h-221.3v-149.4h22v-102.6h-22V3159.7z"/>
</g>
<g id="section_201">
	<path fill="none" d="M1948.6,3159.7h221.3v66h-22v102.6h22v149.4h-221.3v-149.4h22v-102.6h-22V3159.7z"/>
</g>
<g id="section_224">
	<path fill="none" d="M1703,3159.7h221.3v66h-22v102.6h22v149.4H1703v-149.4h22v-102.6h-22V3159.7z"/>
</g>
<g id="section_cadillac_grill">
	<path fill="none" d="M1079.9,1305.5l-27.4-36C815.9,1461,739,1624,716.8,1899.6v304.5c0,292.9,131.2,493.9,332.4,654l29.5-36.4
		C876.6,2673,760.2,2455,760.1,2204.1v-305.4C764.7,1662.2,905,1436,1079.9,1305.5z"/>
</g>
<g id="section_4">
	<path fill="none" d="M2698.3,2873.7l28.7,150.7c130.1-25.7,237.2-75.5,320-150.7l-89.3-120.7L2698.3,2873.7z M2349,1012v43.5
		l98-0.2V1012H2349z"/>
</g>
<g id="section_3">
	<path fill="none" d="M2401,2878.9v148.2h302l-26-148.2H2401z M2253,1012v43.7l96-0.2V1012H2253z"/>
</g>
<g id="section_2">
	<path fill="none" d="M2191.7,2878.9h186v148.2h-186V2878.9z M2154,1012v43.9l99-0.2V1012H2154z"/>
</g>
<g id="section_1">
	<path fill="none" d="M1947.7,2878.9h222.7v148.2h-222.7V2878.9z M2060.1,1012v44.1l93.9-0.2V1012H2060.1z"/>
</g>
<g id="section_24">
	<path fill="none" d="M1741.7,2878.9h182.7v148.2h-182.7V2878.9z M3424.3,2397.9l45.5,11.4c6.2-29.2,11.1-60.1,14.9-93.2l-44.3-9.1
		C3436.4,2339.1,3431.2,2368.8,3424.3,2397.9z"/>
</g>
<g id="section_23">
	<path fill="none" d="M1439,2878.9h279.8v148.2c-114.8,4.8-220.1,6.3-303.1,0L1439,2878.9z M3449,2215c-2.2,33.4-5,63.6-8.5,91.8
		l44.3,9.1c3.5-30.6,6.2-63.2,8.1-98.3l-43.9-4.4V2215z"/>
</g>
<g id="section_22">
	<path fill="none" d="M1419,2873l-28.7,151.3c-119.6-32.2-228-79.6-318.7-151.3l88.7-118.7L1419,2873z M3449,2213.3l43.9,4.4
		c0-0.5,0.1-1.1,0.1-1.6v-102h-44V2213.3z"/>
</g>
<g id="section_10">
	<path fill="none" d="M3047,1257.7c-88.1-68-194-119.7-320-152.7l-28,152.7l258,114.1L3047,1257.7z M3034.3,1142.1
		c-31.2-17.3-60.6-32.5-89.1-45.8l-19.1,40.8c28.3,12.9,57.4,27.5,88,44.1L3034.3,1142.1z"/>
</g>
<g id="section_11">
	<path fill="none" d="M2399,1100.3v148.3h278l26.7-148.3H2399z M3034.3,1142.1l-20.3,39c29.5,19.3,56.3,37.9,81,56.3l27.6-37.8
		C3095.8,1180.4,3066.5,1161.4,3034.3,1142.1z"/>
</g>
<g id="section_12">
	<path fill="none" d="M2378.1,1248.6h-186v-148.3h186V1248.6z M3122.7,1199.6l-27.6,37.8c27.7,20.6,52.8,41,76,62l33.6-34
		C3179.8,1242.7,3152.7,1221,3122.7,1199.6z"/>
</g>
<g id="section_13">
	<path fill="none" d="M2171.1,1248.6h-222v-148.3h222V1248.6z M3204.7,1265.4l-33.6,34c25.4,23,48.6,46.8,70.5,72.4l36.1-29.9
		C3255.2,1314.7,3231.2,1289.5,3204.7,1265.4z"/>
</g>
<g id="section_14">
	<path fill="none" d="M1924.3,1248.6h-182.2v-148.3h182.2V1248.6z"/>
</g>
<g id="section_15">
	<path fill="none" d="M1415,1100.3h304v148.3h-276.7L1415,1100.3z"/>
</g>
<g id="section_16">
	<path fill="none" d="M1391.7,1105.7l28,150.7L1161,1373l-88.7-117.3C1154.2,1196.7,1260.9,1146.8,1391.7,1105.7z"/>
</g>
<g id="section_l">
	<path fill="none" d="M3389,1792.6l-41.9,8.8c4.6,28.6,8.1,58.4,10.3,89.6v1.6l43.8-6.6C3398.1,1853.4,3394,1822.3,3389,1792.6z"/>
</g>
<g id="section_m">
	<path fill="none" d="M3368.7,1699.4l-41.1,12.8c8,28.5,14.5,58.2,19.5,89.3l41.9-8.8C3383.5,1760,3376.7,1729,3368.7,1699.4z"/>
</g>
<g id="section_o">
	<path fill="none" d="M3288.7,1510.3l-39,24.2c18.9,30.6,35.3,62.2,49.2,95.3l41.3-15.8C3325.8,1577.8,3308.7,1543.4,3288.7,1510.3z
		"/>
</g>
<g id="section_n">
	<path fill="none" d="M3340.3,1614l-41.3,15.8c11.1,26.4,20.6,53.8,28.6,82.4l41.1-12.8C3360.6,1669.7,3351.2,1641.3,3340.3,1614z"
		/>
</g>
<g id="section_j">
	<path fill="none" d="M3401.4,1979h-44v84.5h44V1979z"/>
</g>
<g id="section_h">
	<path fill="none" d="M3357.4,2147.5v89.2l44,5.4v-94.6H3357.4z"/>
</g>
<g id="section_i">
	<path fill="none" d="M3401.4,2063.5h-44v84h44V2063.5z"/>
</g>
<g id="section_p">
	<path fill="none" d="M3221.9,1416.6l-38.5,26.4c24.9,29.7,47,60,66.3,91.3l39-24.2C3269.3,1478.1,3247.1,1447.1,3221.9,1416.6z"/>
</g>
<g id="section_k">
	<path fill="none" d="M3401.4,1888c-0.1-0.7-0.1-1.3-0.2-2l-43.8,6.6v86.4h44V1888z"/>
</g>
<g id="section_f">
	<path fill="none" d="M3326.7,2416l42.6,14.9c7.8-29.6,14.3-60.7,19.8-93.4l-42.8-10.4C3341.1,2358.1,3334.6,2387.6,3326.7,2416z"/>
</g>
<g id="section_c">
	<path fill="none" d="M3185.2,2682.9l38.2,30.8c25.7-30.5,48.1-61.6,67.6-94l-41.6-25.3C3230.7,2624.7,3209.4,2654.1,3185.2,2682.9z
		"/>
</g>
<g id="section_d">
	<path fill="none" d="M3249.4,2594.5l41.6,25.3c19.7-32.7,36.3-66.7,50.4-102.6l-43.5-17.2
		C3284.2,2532.8,3268.1,2564.1,3249.4,2594.5z"/>
</g>
<g id="section_q">
	<path fill="none" d="M3144.7,1333.8l-32.9,32.5c26.1,25.4,49.9,50.9,71.6,76.9l38.5-26.4
		C3198.8,1388.7,3173.1,1361.3,3144.7,1333.8z"/>
</g>
<g id="section_b">
	<path fill="none" d="M3110.7,2761.9l33.6,34.3c29.3-27.3,55.6-54.7,79-82.5l-38.2-30.8C3162.9,2709.5,3138.2,2735.7,3110.7,2761.9z
		"/>
</g>
<g id="section_a">
	<path fill="none" d="M3040,2824.7l27.2,37.9c27.8-22.3,53.5-44.3,77.2-66.3l-33.6-34.3C3088.9,2782.8,3065.3,2803.7,3040,2824.7z"
		/>
</g>
<g id="section_r">
	<path fill="none" d="M3068.4,1265.4L3040,1301c25.6,21.8,49.5,43.5,71.8,65.3l32.9-32.5C3121.2,1311.1,3095.8,1288.4,3068.4,1265.4
		z"/>
</g>
<g id="section_g">
	<path fill="none" d="M3357.4,2239c-2.7,30.7-6.4,60-11.1,88.1l42.8,10.4c5-30,9-61.4,12.3-94.5v-0.9l-44-5.4V2239z"/>
</g>
<g id="section_e">
	<path fill="none" d="M3297.8,2500l43.5,17.2c10.8-27.5,20.1-56.2,28-86.3l-42.6-14.9C3318.6,2445.1,3309.1,2473,3297.8,2500z"/>
</g>
<g id="section_60">
	<path fill="none" d="M667.1,2215.1l-43.7,2.7c1.7,35.8,4.1,68,7.7,98.3l44.4-9C671.5,2277.8,668.9,2247.5,667.1,2215.1z"/>
</g>
<g id="section_58">
	<path fill="none" d="M692.5,2397.2l-45.4,11.7c6.9,29,15.6,57.8,26.8,88.1l43.8-16.3C707.6,2452.1,699.3,2424.6,692.5,2397.2z"/>
</g>
<g id="section_61">
	<path fill="none" d="M667,2213v-100.7h-43.8v100.9c0.1,1.5,0.1,3,0.2,4.6l43.7-2.7C667.1,2214.4,667,2213.7,667,2213z"/>
</g>
<g id="section_48">
	<path fill="none" d="M1384.3,3053l-9.1,45.7c32.9,6.7,66.1,11.1,102.3,13.7l6.1-45.7C1448.6,3063.7,1416.3,3059.4,1384.3,3053z"/>
</g>
<g id="section_47">
	<path fill="none" d="M1483.6,3066.6l-6.1,45.7c30.3,2.1,62.6,2.9,98.5,2.7v-44C1542.5,3070.3,1512.1,3069,1483.6,3066.6z"/>
</g>
<g id="section_49">
	<path fill="none" d="M1285.8,3027.1l-14.3,43c36.1,12.3,69.7,21.6,103.7,28.6l9.1-45.7C1352.1,3046.6,1320.1,3038.2,1285.8,3027.1z
		"/>
</g>
<g id="section_52">
	<path fill="none" d="M1021.6,2892.5l-29.8,36.4c27.9,19.9,57.8,38.8,90.2,57.1l24.6-38.7
		C1075.9,2929.4,1047.7,2911.3,1021.6,2892.5z"/>
</g>
<g id="section_51">
	<path fill="none" d="M1188.3,2991.7c-29.2-14.8-56.3-29.5-81.7-44.3l-24.6,38.7c27.8,15.6,57.3,30.8,89,45.6c0.5,0.2,1,0.4,1.5,0.6
		l17.9-39.8C1189.7,2992.2,1189,2991.9,1188.3,2991.7z"/>
</g>
<g id="section_50">
	<path fill="none" d="M1190.4,2992.5l-17.9,39.8c36,14.9,68.4,27.4,99,37.8l14.3-43C1256.3,3017.6,1225,3006.2,1190.4,2992.5z"/>
</g>
<g id="section_62">
	<path fill="none" d="M667,2015h-43.8v97.3H667V2015z"/>
</g>
<g id="section_72">
	<path fill="none" d="M1079.9,1144.2c-27.2,16.2-54.9,34.2-83.5,54.1c-0.5,0.4-0.9,0.7-1.4,1.1l29.1,34.9
		c28-19.2,55.1-36.4,81.7-51.9L1079.9,1144.2z"/>
</g>
<g id="section_71">
	<path fill="none" d="M913.7,1267.3l33,31.2c22.8-20.9,48-41.9,76.3-63.6c0.3-0.2,0.7-0.4,1-0.7l-29.1-34.9
		C964.3,1223.1,937.6,1245.4,913.7,1267.3z"/>
</g>
<g id="section_74">
	<path fill="none" d="M1285.4,1101.8l-15.8-44.5c-33.8,10.7-66.8,23.6-99.8,39l20.9,41.8C1221.8,1123.9,1253.1,1111.9,1285.4,1101.8
		z"/>
</g>
<g id="section_73">
	<path fill="none" d="M1190.6,1138.2l-20.9-41.8c-29.7,13.8-59.4,29.7-89.8,47.8l25.8,38.2
		C1134.3,1165.7,1162.4,1151.1,1190.6,1138.2z"/>
</g>
<g id="section_77">
	<path fill="none" d="M1575,1057v-45c-34.2,1-66.5,2.9-97.3,5.6l5.5,45.8C1512.2,1060.6,1542.7,1058.5,1575,1057z"/>
</g>
<g id="section_75">
	<path fill="none" d="M1386.5,1076.9l-9-46.1c-37.5,6.8-73.2,15.5-108,26.5l15.8,44.5C1317.8,1091.7,1351.2,1083.5,1386.5,1076.9z"
		/>
</g>
<g id="section_76">
	<path fill="none" d="M1483.1,1063.5l-5.5-45.8c-35.1,3.1-68.3,7.5-100.2,13.2l9,46.1C1417.1,1071.3,1449.2,1066.8,1483.1,1063.5z"
		/>
</g>
<g id="section_69">
	<path fill="none" d="M875.5,1372.5l-32.7-31.9c-22.6,26.5-43.2,54.3-63.8,85.2l36.9,27C835,1423.9,854.4,1397.6,875.5,1372.5z"/>
</g>
<g id="section_65">
	<path fill="none" d="M693.6,1732.8l-45.8-13c-6.8,30.1-12.1,61.2-16.1,94.1l45.3,8.4C681.4,1790.6,686.7,1761.4,693.6,1732.8z"/>
</g>
<g id="section_70">
	<path fill="none" d="M946.7,1298.6l-33-31.2c-26.5,24.3-49.6,48.2-70.9,73.3l32.7,31.9C897.1,1346.9,920.4,1322.7,946.7,1298.6z"/>
</g>
<g id="section_63">
	<path fill="none" d="M667,1915.7c0.1-0.7,0.1-1.4,0.2-2l-43.8-2.6c-0.1,1-0.1,1.9-0.2,2.9V2015H667V1915.7z"/>
</g>
<g id="section_64">
	<path fill="none" d="M677,1822.3l-45.3-8.4c-3.8,30.5-6.5,62.7-8.3,97.1l43.8,2.6C670,1880.3,673.1,1850.3,677,1822.3z"/>
</g>
<g id="section_66">
	<path fill="none" d="M718.3,1649.5l-44.7-19.7c-10.4,29.6-18.9,59.3-25.8,89.9l45.8,13C700.2,1705.1,708.3,1678,718.3,1649.5z"/>
</g>
<g id="section_68">
	<path fill="none" d="M760.3,1545.7c18.9-34.1,37-64.7,55.6-92.9l-36.9-27c-19.4,29.2-38.8,61.1-59.9,97.3c-0.2,0.3-0.3,0.7-0.5,1
		l41.4,22.2C760.1,1546.1,760.2,1545.9,760.3,1545.7z"/>
</g>
<g id="section_67">
	<path fill="none" d="M760.1,1546.3l-41.4-22.2c-18,36.2-32.8,70.9-45,105.7l44.7,19.7C729.5,1617.6,743.2,1584,760.1,1546.3z"/>
</g>
<g id="section_28">
	<path fill="none" d="M3239.4,2757.6l37.1,30.6c23-26.9,43.7-54.9,63.9-86l-38.4-26C3282.5,2705,3262.1,2731.6,3239.4,2757.6z"/>
</g>
<g id="section_26">
	<path fill="none" d="M3358,2583c-0.2,0.3-0.4,0.7-0.6,1l40.1,21.8c0.2-0.3,0.3-0.6,0.5-0.8c19.1-35.4,34.7-70.4,47.4-106.9
		l-45.5-17.3C3388.6,2512.7,3374.9,2545.9,3358,2583z"/>
</g>
<g id="section_27">
	<path fill="none" d="M3302,2676.2l38.4,26c18.8-28.9,37.4-60.5,57.2-96.4l-40.1-21.8C3339,2617.8,3320.9,2648,3302,2676.2z"/>
</g>
<g id="section_25">
	<path fill="none" d="M3399.9,2480.7l45.5,17.3c9.8-28.4,17.9-57.7,24.5-88.9l-45.5-11.4C3417.8,2425.5,3409.8,2452.6,3399.9,2480.7
		z"/>
</g>
<g id="section_19">
	<path fill="none" d="M3493,1912c-1.6-35.2-3.8-67.1-7.2-97.3l-46.2,7.1c3.9,29.1,6.9,60,9.4,93.6l44-2.4V1912z"/>
</g>
<g id="section_20">
	<path fill="none" d="M3493,1913l-44,2.4c0,0.2,0,0.4,0,0.6v100h44V1913z"/>
</g>
<g id="section_21">
	<path fill="none" d="M3449,2016v98h44v-98H3449z"/>
</g>
<g id="section_35">
	<path fill="none" d="M2731,3054c-37.2,6.2-66.8,10.2-97,12.8l5.6,44.9c34.2-3,65.7-7.8,100.4-13.7c0.3-0.1,0.5-0.1,0.8-0.2
		l-8.7-44.1C2731.7,3053.8,2731.4,3053.9,2731,3054z"/>
</g>
<g id="section_39">
	<path fill="none" d="M2251.5,3071v44h96.5v-44H2251.5z"/>
</g>
<g id="section_42">
	<path fill="none" d="M1961,3071v44h96v-44H1961z"/>
</g>
<g id="section_40">
	<path fill="none" d="M2155.5,3071v44h96v-44H2155.5z"/>
</g>
<g id="section_41">
	<path fill="none" d="M2057,3071v44h98.5v-44H2057z"/>
</g>
<g id="section_29">
	<path fill="none" d="M3168.2,2830.1l34.2,33.4c28-25.2,52.1-49.8,74-75.3l-37.1-30.6C3218.1,2781.9,3194.8,2805.7,3168.2,2830.1z"
		/>
</g>
<g id="section_45">
	<path fill="none" d="M1670,3071v44h97.5v-44H1670z"/>
</g>
<g id="section_43">
	<path fill="none" d="M1864,3071v44h97v-44H1864z"/>
</g>
<g id="section_44">
	<path fill="none" d="M1767.5,3071v44h96.5v-44H1767.5z"/>
</g>
<g id="section_46">
	<path fill="none" d="M1576,3071v44h94v-44H1576z"/>
</g>
<g id="section_38">
	<path fill="none" d="M2348,3071v44h98v-44H2348z"/>
</g>
<g id="section_30">
	<path fill="none" d="M3095,2893c-0.9,0.6-1.8,1.2-2.7,1.8l29.3,35.3c0.5-0.4,1-0.7,1.4-1.1c29.9-22.9,56-44.4,79.4-65.5l-34.2-33.4
		C3146.2,2850.4,3122,2871.1,3095,2893z"/>
</g>
<g id="section_31">
	<path fill="none" d="M3012.8,2945.7l25.3,40.8c26.9-16.3,54.3-34.9,83.4-56.4l-29.3-35.3
		C3064.3,2913.7,3038.2,2930.6,3012.8,2945.7z"/>
</g>
<g id="section_33">
	<path fill="none" d="M2831.9,3027.4l14.9,42.6c35.6-10.7,68.1-22.4,99.3-35.9l-19.4-42.9C2897,3004.8,2866.2,3016.7,2831.9,3027.4z
		"/>
</g>
<g id="section_32">
	<path fill="none" d="M2926.7,2991.3l19.4,42.9c31.4-13.6,61.5-29.2,92.1-47.7l-25.3-40.8C2984,2962.9,2955.9,2977.9,2926.7,2991.3z
		"/>
</g>
<g id="section_36">
	<path fill="none" d="M2543,3071h-1.5v44h1.5c36.5,0.5,67.5-0.8,96.6-3.3l-5.6-44.9C2606.3,3069.2,2578.1,3070.4,2543,3071z"/>
</g>
<g id="section_34">
	<path fill="none" d="M2732.1,3053.7l8.7,44.1c38.8-9,73.7-18,106-27.7l-14.9-42.6C2801.7,3036.9,2768.9,3045.6,2732.1,3053.7z"/>
</g>
<g id="section_37">
	<path fill="none" d="M2446,3071v44h95.5v-44H2446z"/>
</g>
<g id="section_5">
	<path fill="none" d="M2447,1012v43.3l94-0.2V1012H2447z"/>
</g>
<g id="section_6">
	<path fill="none" d="M2543.1,1012h-2.1v43.1l2.1,0c32.1,0.5,62.5,2,91.6,4.5l5.7-43.1C2610,1014.1,2577.7,1012.6,2543.1,1012z"/>
</g>
<g id="section_9">
	<path fill="none" d="M2846.2,1056.5l-12.7,43.7c30.4,10.2,61,22.4,92.6,36.8l19.1-40.8C2911.4,1080.5,2878.9,1067.4,2846.2,1056.5z
		"/>
</g>
<g id="section_8">
	<path fill="none" d="M2739.6,1029.3l-7.8,43.9c34.5,6.8,68,15.7,101.7,27l12.7-43.7C2811.4,1045,2776.4,1036.1,2739.6,1029.3z"/>
</g>
<g id="section_7">
	<path fill="none" d="M2640.4,1016.6l-5.7,43.1c33.8,3,65.9,7.4,97.2,13.6l7.8-43.9C2708.2,1023.6,2675.5,1019.4,2640.4,1016.6z"/>
</g>
<g id="section_79">
	<path fill="none" d="M1671,1012v44.8l96-0.2V1012H1671z"/>
</g>
<g id="section_80">
	<path fill="none" d="M1767,1012v44.6l99-0.2V1012H1767z"/>
</g>
<g id="section_78">
	<path fill="none" d="M1575,1012v45l96-0.2V1012H1575z"/>
</g>
<g id="section_82">
	<path fill="none" d="M1962,1012v44.3l98.1-0.2V1012H1962z"/>
</g>
<g id="section_81">
	<path fill="none" d="M1866,1012v44.4l96-0.2V1012H1866z"/>
</g>
<g id="section_116">
	<path fill="none" d="M1458.3,1763l52-21.3l-66-358.7l-22.7,8l-23.9-124.8l-216.1,97.5l76.7,101.3l-18.7,11.3L1458.3,1763z"/>
</g>
<g id="section_117">
	<path fill="none" d="M1376.3,1837l63.3-60.7L1223,1493.1l-15.3,13.2l-78.7-100.7l16-18.7l-40-52.7
		c-104.6,89.4-186.9,189.8-244,302.7l58.7,22l14.7-18l116.7,45.3l-14.7,18.7L1376.3,1837z"/>
</g>
<g id="section_118">
	<path fill="none" d="M1348.3,1963l18-107.3l-336-130l-3.3,21.3l-118.7-46l3.3-21.3l-60-23.3c-28.5,89-46.7,175.4-52,258.7l63.3,4
		l4-20.7l126.7,10.7l-4,23.3L1348.3,1963z"/>
</g>
<g id="section_119">
	<path fill="none" d="M1348.3,2141v-154.7l-358-32.7v24.7l-128-12.7V1943l-62.7-6c-5.9,87.7-6.5,172,0,252l63.3-4v-24.7l126.7-9.3
		v22.7L1348.3,2141z"/>
</g>
<g id="section_120">
	<path fill="none" d="M1366.3,2272.3l-16-108.7l-358,30v24.3l-126,11v-22.7l-66.7,6.7c10.2,83.4,28.5,169.8,53.3,258.7l58.7-22
		L905,2427l121.3-45.3l5.3,20.7L1366.3,2272.3z"/>
</g>
<g id="section_121">
	<path fill="none" d="M1167.7,2671l-40,52l15.3,16.7l-39.7,53.3c-96.1-78-177.3-178-243.7-300l59.3-24.7l14.7,19.3l59.3-24.5
		L1167.7,2671z M1194.8,2632.3l-16.2,22.6l-167.3-194.8l24.1-11L1194.8,2632.3z M1439,2354.3l-62-62l-338,132l181.3,209.7
		L1439,2354.3z"/>
</g>
<g id="section_122">
	<path fill="none" d="M1477,2375l-19-10.4L1238,2654l18,8l-72.5,103l214.7,98.5L1422,2738l23,10.3l26-152.3l-75-33L1477,2375z"/>
</g>
<g id="section_123">
	<path fill="none" d="M1717,2390.3v358h-22.7v130.6h-228l22-130.6h-22l65.3-358H1717z"/>
</g>
<g id="section_124">
	<path fill="none" d="M1903.7,2793h-142v-22h142V2793z M1903.7,2815h-142v63.9h142V2815z M1924.3,2390.3h-182.7v358h182.7V2390.3z"
		/>
</g>
<g id="section_101">
	<path fill="none" d="M2145.7,2878.9v-130.6h24.7v-358h-222.7v358h23.3v130.6H2145.7z"/>
</g>
<g id="section_102">
	<path fill="none" d="M2377.7,2748.3v-358h-186v358h24v130.6h140v-130.6H2377.7z"/>
</g>
<g id="section_103">
	<path fill="none" d="M2401,2390.3h187.3l65.3,360h-23.3l23.3,128.6h-231.3v-130.6H2401V2390.3z"/>
</g>
<g id="section_104">
	<path fill="none" d="M2660.1,2364.6l-51,26.6l63,354.4l27-10.5l19.6,129.2l219.9-102.3l-78.9-97.4l21-10.5L2660.1,2364.6z"/>
</g>
<g id="section_105">
	<path fill="none" d="M2740.7,2293.4l-60.7,60.7l215.3,283.3l15.3-16l78.7,101.3l-16.7,16.7l42,54
		c102.3-82.1,183.6-181.4,242.7-298.7l-57.3-22.7l-12.7,18.7l-118-48.7l9.3-19.3L2740.7,2293.4z"/>
</g>
<g id="section_106">
	<path fill="none" d="M2768,2165.4l-18.7,109.3l338,130l4.7-22.7l118.7,45.3l-6.7,22.7l61.3,22c22.7-86.5,41-172.7,52-258.7l-65.3-6
		l-2.7,22l-126-11.3l1.3-22.7L2768,2165.4z"/>
</g>
<g id="section_107">
	<path fill="none" d="M2768,1987.4v154.7l360,31.3v-22.7l128,12l-2.7,26l64,3.3v-254.7l-61.3,6.7v22.7l-129.4,12.7v-22L2768,1987.4z
		"/>
</g>
<g id="section_108">
	<path fill="none" d="M3266,1657.4c26.2,84.5,43,170.8,51.3,258.7l-64,6l-3.3-22l-128,13.3l2.7,20.7l-358,29.3l-17.3-106
		l338.7-129.3l6.7,21.3l116-47.3l-4.7-20L3266,1657.4z"/>
</g>
<g id="section_109">
	<path fill="none" d="M3016,1335.4c97.1,85,177.3,185.1,240,301.3l-58.5,21l-13.5-16.5l-117,46.5l12,18l-343.5,131.4l-55.5-62.4
		l214.5-280.5l15,15l79.5-102l-15-18L3016,1335.4z"/>
</g>
<g id="section_110">
	<path fill="none" d="M2610.6,1737.9l64.5-358.8l21.9,13.9l22.6-126.2l216.7,95.9l-75.3,103l20,12l-220.7,284.7L2610.6,1737.9z"/>
</g>
<g id="section_111">
	<path fill="none" d="M2423,1248.6v130.5h-24v358.5h188l66-358.5h-21.3l21.3-130.5H2423z"/>
</g>
<g id="section_112">
	<path fill="none" d="M2355.7,1359.7h-141.3v-25.3h141.3V1359.7z M2355.7,1248.6h-141.3v68.4h141.3V1248.6z M2378.1,1379.1h-186
		v358.5h186V1379.1z"/>
</g>
<g id="section_114">
	<path fill="none" d="M1904.3,1359.7h-142.7v-25.3h142.7V1359.7z M1904.3,1248.6h-142.7v68.4h142.7V1248.6z M1928.1,1379.1h-186
		v358.5h186V1379.1z"/>
</g>
<g id="section_113">
	<path fill="none" d="M1968.6,1248.6h181.5v130.5h21v358.5h-222v-358.5h19.5V1248.6z"/>
</g>
<g id="section_115">
	<path fill="none" d="M1532.1,1737.6h184.5v-358.5h-21v-130.5h-229.5l19.5,130.5h-19.5L1532.1,1737.6z"/>
</g>
<g id="section_press-area">
	<path fill="none" d="M586.7,1015.7c270.3-258.7,535.9-389.8,936.1-408h1134.1C2892,618,3154,721,3352.9,865.7l30-33
		c-264.3-179-445-245.7-765.1-270H1546.8C1135,579,839.9,708.7,550.7,985.7L586.7,1015.7z"/>
</g>
<g id="section_53">
	<path fill="none" d="M947.1,2832.4l-34.4,32.5c24.5,22.6,50.7,43.8,79.1,64.1l29.8-36.4C994.8,2873.3,970.1,2853.4,947.1,2832.4z"
		/>
</g>
<g id="section_54">
	<path fill="none" d="M877.7,2759.8l-37.9,28.2c22.7,27.4,46.8,52.9,72.9,76.9l34.4-32.5C922.3,2809.7,899.4,2785.7,877.7,2759.8z"
		/>
</g>
<g id="section_55">
	<path fill="none" d="M815.8,2676.3l-38.6,26.2c19.8,30.5,40.5,58.8,62.5,85.4l37.9-28.2C856.1,2734,835.7,2706.4,815.8,2676.3z"/>
</g>
<g id="section_56">
	<path fill="none" d="M760.3,2584.3c-0.1-0.1-0.1-0.3-0.2-0.4l-40.5,19.8c18.6,35.3,37.6,68.1,57.6,98.8l38.6-26.2
		C797.1,2648,778.8,2617.5,760.3,2584.3z"/>
</g>
<g id="section_57">
	<path fill="none" d="M717.8,2480.7L674,2497c12.1,32.9,27.1,67.7,45.7,106.7c0,0,0,0.1,0,0.1l40.5-19.8
		C743.3,2547.1,729.3,2513.2,717.8,2480.7z"/>
</g>
<g id="section_59">
	<path fill="none" d="M675.5,2307l-44.4,9c3.8,32.6,9,62.8,16.1,92.8l45.4-11.7C685.1,2367.4,679.6,2337.8,675.5,2307z"/>
</g>
<g id="section_18">
	<path fill="none" d="M3469.7,1719.2l-46,13.3c6.5,28.5,11.7,57.9,15.9,89.3l46.2-7.1C3482.1,1781.2,3477,1750,3469.7,1719.2z"/>
</g>
<g id="section_17">
	<path fill="none" d="M3443,1631.7l-43.3,16.4c9.5,28.1,17.4,55.8,23.9,84.4l46-13.3C3462.9,1690.1,3454.2,1661.5,3443,1631.7z"/>
</g>
<g id="section_16_1_">
	<path fill="none" d="M3396,1526C3396,1526,3396,1526,3396,1526l-37.8,18.5c0.3,0.5,0.6,1,0.8,1.5c16.2,35.8,29.6,69.2,40.8,102.1
		l43.3-16.4C3430.7,1598.6,3415.3,1564.1,3396,1526z"/>
</g>
<g id="section_15_1_">
	<path fill="none" d="M3340.4,1429.1l-37.9,23.9c18.5,27.7,36.8,57.9,55.6,91.5l37.8-18.5
		C3377.5,1490.7,3359.2,1458.7,3340.4,1429.1z"/>
</g>
<g id="section_14_1_">
	<path fill="none" d="M3277.6,1341.9l-36.1,29.9c21.2,24.9,41.3,51.6,61,81.2l37.9-23.9C3320.4,1397.5,3299.8,1368.7,3277.6,1341.9z
		"/>
</g>
<g id="section_26_1_">
	<path fill="none" d="M452.2,1178.1l-36-25.5c-74,108.8-122,198.9-157.5,297.9l42.9,18.3C336.3,1376.2,383.1,1286.3,452.2,1178.1z"
		/>
</g>
<g id="section_24_1_">
	<path fill="none" d="M224.2,1775.1c0.1-0.5,0.2-1,0.3-1.5l-42.3-8.7c-8.6,97.5-14,194.3-14,298.1H217
		C217,1974.2,219.3,1886.8,224.2,1775.1z"/>
</g>
<g id="section_2_1_">
	<path fill="none" d="M3793.3,1301l-44,20.6c36.9,68.6,67.1,138,90.6,211.4l46.3-12.9C3862.6,1443.5,3831.9,1371.8,3793.3,1301z"/>
</g>
<g id="section_1_1_">
	<path fill="none" d="M3669,1109l-36,26c44.2,63.2,83,124.6,116.3,186.6l44-20.6C3758.5,1237.2,3717.3,1174.1,3669,1109z"/>
</g>
<g id="section_7_1_">
	<path fill="none" d="M3838.4,2596l41.6,14.5c22.3-67.6,40-137.6,53-209.4l0.3-4.7l-50.2-5.1C3872.7,2464.8,3858.1,2532,3838.4,2596
		z"/>
</g>
<g id="section_5_1_">
	<path fill="none" d="M3949,1943c0-0.3,0-0.7,0-1h-48v243h48V1943z"/>
</g>
<g id="section_8_1_">
	<path fill="none" d="M3751,2806.2l39,18.5c35.4-68.2,65.5-139.8,90-214.3l-41.6-14.5C3816.1,2668.7,3787.4,2737.2,3751,2806.2z"/>
</g>
<g id="section_3_1_">
	<path fill="none" d="M3886.2,1520.1l-46.3,12.9c20.6,64.4,36,132,46.3,204.9l45.8-7.9C3921.5,1654.9,3906.5,1585.7,3886.2,1520.1z"
		/>
</g>
<g id="section_4_1_">
	<path fill="none" d="M3932,1730l-45.8,7.9c8.9,63.2,13.8,130.4,14.8,203.1v1h48C3946.6,1865.7,3941,1795.6,3932,1730z"/>
</g>
<g id="section_11_1_">
	<path fill="none" d="M3178.8,3372.1l24.6,36.5c99.5-50.7,190.3-112.1,271.6-182.6l-31.7-31.7
		C3361.6,3264.5,3273.4,3323.8,3178.8,3372.1z"/>
</g>
<g id="section_14_2_">
	<path fill="none" d="M2225.1,3525v46h331.5v-46H2225.1z"/>
</g>
<g id="section_15_2_">
	<path fill="none" d="M1895.1,3525v46h330v-46H1895.1z"/>
</g>
<g id="section_9_1_">
	<path fill="none" d="M3636,2993.5l31.8,25.6c45.9-61,86.7-126,122.2-194.4l-39-18.5C3718.9,2867.2,3680.8,2928.5,3636,2993.5z"/>
</g>
<g id="section_16_2_">
	<path fill="none" d="M1561,3525v46h334.1v-46H1561z"/>
</g>
<g id="section_10_1_">
	<path fill="none" d="M3635,2995c-59.4,73.9-123.3,140.4-191.7,199.3l31.7,31.7c71.8-62.2,136.2-131.5,192.9-206.9l-31.8-25.6
		C3635.7,2994,3635.4,2994.5,3635,2995z"/>
</g>
<g id="section_6_1_">
	<path fill="none" d="M3901,2185v4c-3.3,73.3-9.1,140-17.9,202.1l50.2,5.1L3949,2185H3901z"/>
</g>
<g id="section_13_1_">
	<path fill="none" d="M2559,3525h-2.4v46h2.4c112.3-4.7,220-14.4,319.5-41.4l-12.5-43.1C2768.9,3509,2666.6,3521.2,2559,3525z"/>
</g>
<g id="section_12_1_">
	<path fill="none" d="M2866.1,3486.5l12.5,43.1c118.5-24.6,225.1-70.2,324.8-121l-24.6-36.5
		C3081.4,3421.7,2977.1,3460.7,2866.1,3486.5z"/>
</g>
<g id="section_17_1_">
	<path fill="none" d="M1561,3525c-121.4-5.4-229.6-19.9-329.3-44.3l-12,45.6c106.6,26.2,219.9,41.1,341.3,44.6V3525z"/>
</g>
<g id="section_18_1_">
	<path fill="none" d="M912.7,3355.6l-21.8,43.6c102.7,56,211.7,98.4,328.8,127.1l12-45.6C1116.4,3452.6,1012.5,3411.3,912.7,3355.6z
		"/>
</g>
<g id="section_19_1_">
	<path fill="none" d="M660.7,3180.5c-0.5-0.5-1.1-1-1.6-1.5l-31.6,35.8c0.1,0.1,0.1,0.1,0.2,0.2c83.4,72.4,170.7,133.8,263.2,184.2
		l21.8-43.6C827.2,3308,744.8,3249.9,660.7,3180.5z"/>
</g>
<g id="section_20_1_">
	<path fill="none" d="M452.9,2947.3l-34.6,28.3c55.6,76.6,124.1,154.9,209.2,239.2l31.6-35.8C576.9,3101,509,3024.9,452.9,2947.3z"
		/>
</g>
<g id="section_21_1_">
	<path fill="none" d="M299,2659.7l-40.5,16.6c37.2,103.6,87.7,200.1,159.8,299.4l34.6-28.3C386.5,2855.5,336.6,2761.5,299,2659.7z"
		/>
</g>
<g id="section_22_1_">
	<path fill="none" d="M223.1,2354l-40.2,9.5c18.1,115.3,41.2,217,75.6,312.7l40.5-16.6C264.4,2566,240.2,2465.6,223.1,2354z"/>
</g>
<g id="section_23_1_">
	<path fill="none" d="M222.7,2351.1c-3.7-113.2-5.7-201.3-5.7-288.1h-48.9c0,91.4,4.1,188.2,14.1,295.6c0.3,1.6,0.5,3.3,0.8,4.9
		l40.2-9.5C223,2353,222.8,2352.1,222.7,2351.1z"/>
</g>
<g id="section_25_1_">
	<path fill="none" d="M301.6,1468.8l-42.9-18.3c-32.4,90.3-54.5,188-76.5,314.1c0,0.1,0,0.2,0,0.3l42.3,8.7
		C244.7,1655.5,267.2,1560.8,301.6,1468.8z"/>
</g>
</svg>
